<?xml version="1.0" encoding="utf-8"?>
<!-- Generator: Adobe Illustrator 22.0.0, SVG Export Plug-In . SVG Version: 6.00 Build 0)  -->
<svg version="1.1" id="Layer_1" xmlns="http://www.w3.org/2000/svg" xmlns:xlink="http://www.w3.org/1999/xlink" x="0px" y="0px"
	 viewBox="0 0 24 23.2" style="enable-background:new 0 0 24 23.2;" xml:space="preserve">
<style type="text/css">
	.st0{fill:#CABC9F;}
	.st1{fill:#CABC9F;stroke:#40290F;stroke-width:0.25;stroke-miterlimit:10;}
	.st2{opacity:0.73;}
	.st3{fill:#7C5958;}
	.st4{fill:#C39A95;}
	.st5{fill:#EB3229;}
	.st6{fill:#A07E78;}
	.st7{fill:#F15846;}
	.st8{fill:#C6292C;}
	.st9{fill:#311211;}
	.st10{fill:#A1272B;}
	.st11{fill:#E5CBC7;}
	.st12{fill:#C0E5E7;}
	.st13{fill:#3C2415;}
	.st14{fill:none;}
	.st15{fill:#8A5C3B;}
	.st16{fill:#603913;}
	.st17{fill:#C2B59B;}
	.st18{opacity:0.52;fill:#726658;}
	.st19{fill:#C2B59B;stroke:#3C2415;stroke-width:0.25;stroke-miterlimit:10;}
	.st20{opacity:0.69;}
	.st21{fill:#9D432C;}
	.st22{fill:#793123;}
	.st23{fill:#0C050D;}
	.st24{fill:#F79131;}
	.st25{fill:#F47C28;}
	.st26{fill:#00B4B4;}
	.st27{fill:#7C5B5A;}
	.st28{fill:#4B3033;}
	.st29{fill:#F16165;}
	.st30{fill:#F04C48;}
	.st31{fill:#F7A4A2;}
	.st32{fill:#43C2CB;}
	.st33{fill:#7C6041;}
	.st34{fill:#AD9C8A;}
	.st35{opacity:0.63;}
	.st36{opacity:0.25;}
	.st37{fill:#603913;stroke:#271713;stroke-width:0.75;stroke-miterlimit:10;}
	.st38{opacity:0.78;}
	.st39{fill:#F36F2C;}
	.st40{fill:#C7542D;}
	.st41{fill:#3FC3D6;}
	.st42{fill:#F8A582;}
	.st43{fill:#00B8D5;}
	.st44{fill:#A3402D;}
	.st45{fill:#531E16;}
	.st46{fill:#F47C40;}
	.st47{fill:#0094CB;}
	.st48{fill:#FFE7D2;}
	.st49{fill:#FFFFFF;}
	.st50{fill:#D1D3D4;}
	.st51{fill:#A7A9AC;}
	.st52{opacity:0.66;}
	.st53{opacity:0.68;}
	.st54{fill-rule:evenodd;clip-rule:evenodd;fill:#FFFFFF;}
	.st55{opacity:0.52;}
	.st56{opacity:0.38;}
	.st57{opacity:0.77;}
	.st58{fill:#F9A138;}
	.st59{fill:#FCBB6E;}
	.st60{fill:#C67631;}
	.st61{opacity:0.89;}
	.st62{fill:#C2B59B;stroke:#271713;stroke-width:0.75;stroke-miterlimit:10;}
	.st63{fill:#8B5E3C;}
	.st64{fill:#CB3836;}
	.st65{fill:#8C2526;}
	.st66{fill:#00B3B9;}
	.st67{fill:#F4DFD8;}
	.st68{fill:#CEC866;}
	.st69{fill:#CE56A0;}
	.st70{fill:#7BC472;}
	.st71{opacity:0.7;}
	.st72{fill:#29151B;}
	.st73{opacity:0.74;}
	.st74{fill:#A58A74;}
	.st75{fill:#A49183;}
	.st76{opacity:0.36;}
	.st77{fill-rule:evenodd;clip-rule:evenodd;fill:#F1F2F2;}
	.st78{fill:#F1F2F2;}
	.st79{opacity:0.71;}
	.st80{fill:#A84A2E;}
	.st81{opacity:0.48;}
	.st82{fill:#CCC194;}
</style>
<g>
	<g>
		<g>
			<path class="st13" d="M3,3.5c1.1,1,2.4,1.8,3.7,2.5C6.9,6.1,7,6.1,7,6.3c0,0.1,0,0.1,0,0.2c0,0.2,0,0.3,0,0.5"/>
			<g>
				<path class="st13" d="M2.9,3.6c0.7,0.6,1.5,1.2,2.3,1.7C5.6,5.5,6.1,5.7,6.4,6c0.5,0.3,0.4,0.5,0.5,1c0,0.1,0.3,0.1,0.2-0.1
					C7.1,6.5,7.3,6.3,7,6C6.8,5.8,6.3,5.6,5.9,5.4c-1-0.6-1.9-1.3-2.8-2C3,3.3,2.8,3.5,2.9,3.6L2.9,3.6z"/>
			</g>
		</g>
		<g>
			<path class="st13" d="M3,3.3c0.7,1.1,1.3,2.3,1.8,3.5c0,0.1,0.1,0.2,0.1,0.2C5,7.2,5.1,7.2,5.1,7.2c0.3,0.1,0.6,0.2,0.9,0.3"/>
			<g>
				<path class="st13" d="M2.9,3.4c0.7,1,1.2,2.1,1.6,3.2c0.3,0.8,0.7,0.8,1.5,1c0.1,0.1,0.2-0.2,0.1-0.2c-0.6-0.2-1-0.3-1.3-0.9
					c-0.2-0.3-0.3-0.7-0.4-1C4,4.8,3.6,4,3.1,3.3C3,3.2,2.8,3.3,2.9,3.4L2.9,3.4z"/>
			</g>
		</g>
		<g>
			<path class="st13" d="M6.4,7.7C6.3,7.8,6.3,8,6.5,8.1c0,0,0.1,0,0.1,0.1c0,0,0,0.1,0,0.1c0,0.2,0.1,0.3,0.3,0.4
				c0.1,0,0.1,0,0.2,0.1c0,0,0,0.1,0,0.1c0,0.2,0.3,0.4,0.5,0.3"/>
			<g>
				<path class="st13" d="M6.3,7.6c-0.1,0.2-0.1,0.3,0,0.5c0.1,0.1,0.2,0.1,0.3,0.3c0.1,0.1,0,0.2,0.1,0.3C6.8,8.7,6.9,8.7,7,8.8
					c0.1,0.1,0.1,0.1,0.2,0.2c0.2,0.2,0.3,0.3,0.6,0.3c0.2,0,0.2-0.2,0-0.2c-0.1,0-0.5-0.4-0.6-0.5c0,0-0.7-0.8-0.6-0.9
					C6.5,7.6,6.3,7.5,6.3,7.6L6.3,7.6z"/>
			</g>
		</g>
		<g>
			<path class="st13" d="M7.3,7c0.2,0.1,0.5,0.2,0.6,0.4c0,0.1,0,0.2,0.1,0.3c0.1,0.1,0.3,0.1,0.4,0.2c0.1,0.1-0.1,0.4,0,0.5
				c0.1,0.1,0.2,0.1,0.2,0.2"/>
			<g>
				<path class="st13" d="M7.2,7.1c0.3,0.1,0.4,0.3,0.6,0.6C7.9,7.8,8,7.8,8.1,7.9C8.3,8,8.2,8.1,8.3,8.3c0,0.1,0.2,0.2,0.2,0.3
					c0.1,0.1,0.3,0.1,0.2-0.1c0-0.1-0.1-0.1-0.1-0.2c0-0.1,0-0.3-0.1-0.4c0-0.2,0-0.2-0.2-0.3C8.2,7.6,8.2,7.8,8,7.4
					c-0.1-0.1,0-0.2-0.1-0.3C7.7,7,7.5,6.9,7.3,6.9C7.2,6.8,7.1,7,7.2,7.1L7.2,7.1z"/>
			</g>
		</g>
		<g>
			<path class="st13" d="M7.1,7c0.1,0,0.1,0,0.2,0"/>
			<g>
				<path class="st13" d="M7.1,7.1c0.1,0,0.1,0,0.2,0c0.2,0,0.2-0.2,0-0.2c-0.1,0-0.1,0-0.2,0C6.9,6.9,6.9,7.1,7.1,7.1L7.1,7.1z"/>
			</g>
		</g>
		<g>
			<path class="st13" d="M8.7,8.7C9,8.8,9.3,9,9.5,9.2c0.6,0.6,1.2,1.2,1.8,1.8"/>
			<g>
				<path class="st13" d="M8.7,8.8C9.2,9,9.5,9.5,9.9,9.9c0.4,0.4,0.8,0.9,1.2,1.3c0.1,0.1,0.3-0.1,0.2-0.2
					c-0.5-0.5-0.9-0.9-1.4-1.4c-0.4-0.4-0.7-0.8-1.2-1C8.6,8.5,8.5,8.7,8.7,8.8L8.7,8.8z"/>
			</g>
		</g>
		<g>
			<path class="st13" d="M7.8,9.2C7.9,9.2,8,9.3,8.1,9.4c0.8,0.8,1.5,1.6,2.3,2.3"/>
			<g>
				<path class="st13" d="M7.7,9.3c0.5,0.3,0.9,0.9,1.3,1.3c0.4,0.4,0.8,0.9,1.3,1.3c0.1,0.1,0.3-0.1,0.2-0.2
					c-0.5-0.5-0.9-1-1.4-1.5C8.6,9.8,8.3,9.3,7.8,9.1C7.7,9,7.6,9.2,7.7,9.3L7.7,9.3z"/>
			</g>
		</g>
		<g>
			<path class="st13" d="M12,11.8c0.4,0.7,0.9,1.4,1.6,1.9c0.3,0.2,0.5,0.5,0.8,0.7c0.2,0.2,0.4,0.4,0.6,0.7c0.9,1.1,1.9,2,3,3
				c-0.3,0.2-0.6,0.4-0.9,0.6"/>
			<g>
				<path class="st13" d="M11.9,11.9c0.7,1.2,1.8,2,2.7,3c0.5,0.6,1,1.2,1.6,1.7c0.6,0.6,2,1.3,0.9,2c-0.1,0.1,0,0.3,0.1,0.2
					c0.3-0.2,0.6-0.4,0.9-0.6c0.1,0,0.1-0.1,0-0.2c-1.1-1-2.2-2-3.2-3.1c-1-1.1-2.1-1.9-2.8-3.1C12,11.6,11.8,11.7,11.9,11.9
					L11.9,11.9z"/>
			</g>
		</g>
		<g>
			<path class="st13" d="M11.1,12.6c0.3,0.1,0.5,0.3,0.7,0.6c0.7,0.9,1.7,1.5,2.5,2.3c0.3,0.4,0.6,0.8,0.9,1.1
				c0.6,0.7,1.3,1.3,2,1.9"/>
			<g>
				<path class="st13" d="M11,12.7c0.7,0.3,1.2,1.1,1.7,1.6c0.5,0.5,1.1,0.9,1.6,1.4c0.9,1,1.7,2,2.9,2.9c0.1,0.1,0.2-0.1,0.1-0.2
					c-1.3-1-2.2-2.3-3.4-3.4c-0.5-0.5-1.1-0.9-1.6-1.4c-0.4-0.4-0.7-0.9-1.2-1.2C11,12.4,10.9,12.7,11,12.7L11,12.7z"/>
			</g>
		</g>
		<g>
			<path class="st13" d="M17.6,18.9c0.2-0.1,0.4-0.2,0.6-0.2c0.1,0,0.2-0.1,0.3-0.1c0.2,0,0.3,0.2,0.4,0.4c0.1,0.2,0.3,0.4,0.4,0.5
				c0.1,0,0.1,0.1,0.1,0.2c0,0.1-0.1,0.2-0.1,0.3c-0.1,0.1-0.3,0.3-0.5,0.3c-0.2,0-0.3-0.2-0.4-0.4c-0.2-0.3-0.4-0.7-0.6-1"/>
			<g>
				<path class="st13" d="M17.7,19c0.4-0.2,0.7-0.4,1.1-0.1c0.1,0.1,0.4,0.5,0.5,0.6c0.1,0.2,0.1,0.4-0.2,0.5
					c-0.3,0.1-0.5-0.1-0.6-0.3c-0.2-0.3-0.4-0.6-0.6-0.9c-0.1-0.1-0.3,0-0.2,0.1c0.2,0.4,0.4,0.8,0.7,1.1c0.1,0.1,0.2,0.2,0.3,0.3
					c0.3,0.1,0.9-0.2,0.9-0.6c0-0.1-0.1-0.2-0.2-0.3c-0.2-0.2-0.4-0.6-0.7-0.8c-0.4-0.3-0.8,0.1-1.2,0.2
					C17.4,18.9,17.5,19.1,17.7,19L17.7,19z"/>
			</g>
		</g>
		<g>
			<path class="st13" d="M3,19.6c0.3-0.2,0.6-0.5,0.8-0.9c0.1-0.1,0.1-0.2,0.3-0.3c0.1,0,0.3,0.1,0.4,0.1c0.1,0.1,0.2,0.2,0.3,0.3
				c0,0,0.1,0,0.1,0.1c0,0,0,0.1,0,0.1c-0.2,0.3-0.4,0.6-0.6,0.9c-0.1,0.1-0.2,0.2-0.3,0.2c-0.1,0-0.3,0-0.4-0.1
				c-0.1-0.1-0.2-0.2-0.2-0.3"/>
			<g>
				<path class="st13" d="M3,19.7c0.2-0.2,0.4-0.3,0.6-0.5c0.2-0.2,0.3-0.6,0.7-0.5c0.1,0,0.3,0.2,0.3,0.2c0,0.1-0.1,0.4-0.2,0.5
					c-0.2,0.4-0.7,1-1.1,0.3c-0.1-0.1-0.3,0-0.2,0.1c0.2,0.4,0.5,0.7,1,0.4c0.3-0.2,0.8-0.9,0.8-1.2c0-0.3-0.5-0.6-0.7-0.7
					c-0.2,0-0.3,0-0.4,0.2c-0.3,0.3-0.4,0.7-0.8,0.9C2.8,19.6,2.9,19.8,3,19.7L3,19.7z"/>
			</g>
		</g>
		<g>
			<path class="st13" d="M4.4,18.1c0.3-0.6,0.7-1.1,1.2-1.6c1.6-1.5,3.3-3,4.8-4.6"/>
			<g>
				<path class="st13" d="M4.5,18.2c0.7-1.3,1.9-2.2,3-3.2c1-0.9,2.1-1.9,3-2.9c0.1-0.1-0.1-0.3-0.2-0.2c-1,1.1-2.2,2.2-3.3,3.2
					c-1,0.9-2.1,1.8-2.7,3C4.3,18.2,4.5,18.3,4.5,18.2L4.5,18.2z"/>
			</g>
		</g>
		<g>
			<path class="st13" d="M4.6,18.2c0.1,0.1,0.3,0.2,0.4,0.3"/>
			<g>
				<path class="st13" d="M4.5,18.3c0.1,0.1,0.3,0.2,0.4,0.3C5,18.7,5.2,18.5,5,18.4c-0.1-0.1-0.3-0.2-0.4-0.3
					C4.5,18,4.4,18.2,4.5,18.3L4.5,18.3z"/>
			</g>
		</g>
		<g>
			<path class="st13" d="M5.2,18.7c1.2-0.8,1.8-2,2.8-3c0.3-0.3,0.6-0.6,1-0.9c0.8-0.7,1.4-1.5,2-2.2"/>
			<g>
				<path class="st13" d="M5.2,18.8C6.3,18,7,17,7.8,16c1.1-1.2,2.2-2.2,3.2-3.4c0.1-0.1-0.1-0.3-0.2-0.2c-0.9,1.1-2,2.1-3,3.1
					c-1,1-1.6,2.2-2.8,3C5,18.6,5.1,18.9,5.2,18.8L5.2,18.8z"/>
			</g>
		</g>
		<g>
			<path class="st13" d="M11.3,11c1-0.7,1.6-1.7,2.6-2.4"/>
			<g>
				<path class="st13" d="M11.4,11.1c0.9-0.7,1.6-1.7,2.6-2.4c0.1-0.1,0-0.3-0.1-0.2c-1,0.7-1.7,1.7-2.7,2.4
					C11.1,11,11.2,11.2,11.4,11.1L11.4,11.1z"/>
			</g>
		</g>
		<g>
			<path class="st13" d="M12.1,11.8c0.8-0.8,1.6-1.6,2.3-2.5"/>
			<g>
				<path class="st13" d="M12.1,11.8c0.8-0.8,1.6-1.6,2.3-2.5c0.1-0.1-0.1-0.3-0.2-0.2c-0.7,0.9-1.5,1.7-2.3,2.5
					C11.9,11.8,12,11.9,12.1,11.8L12.1,11.8z"/>
			</g>
		</g>
		<g>
			<path class="st13" d="M13.8,8.6c0-0.1,0-0.3,0-0.4c0,0,0-0.1,0-0.1c0,0,0.1-0.1,0.1-0.1c0.1-0.1,0.2-0.2,0.3-0.3
				c0.1-0.1,0.2-0.1,0.3-0.2c0.1-0.1,0.2-0.2,0.4-0.3s0.3-0.1,0.4-0.1"/>
			<g>
				<path class="st13" d="M13.9,8.6c0-0.3,0.1-0.4,0.2-0.6c0.2-0.2,0.8-0.7,1.1-0.6c0.1,0,0.2-0.2,0.1-0.2c-0.4-0.1-0.9,0.3-1.2,0.5
					c-0.4,0.3-0.5,0.5-0.5,1C13.7,8.8,13.9,8.8,13.9,8.6L13.9,8.6z"/>
			</g>
		</g>
		<g>
			<path class="st13" d="M15.3,7.3c0.2-0.3,0.2-0.6,0.2-1"/>
			<g>
				<path class="st13" d="M15.4,7.3c0.1-0.3,0.2-0.7,0.2-1c0-0.2-0.2-0.2-0.2,0c0,0.3,0,0.6-0.2,0.9C15.2,7.3,15.4,7.5,15.4,7.3
					L15.4,7.3z"/>
			</g>
		</g>
		<g>
			<path class="st13" d="M15.4,6.2c0-0.1,0.1-0.1,0.2-0.2c1.2-0.8,2.4-1.5,3.7-2.2"/>
			<g>
				<path class="st13" d="M15.5,6.3c0.4-0.5,1.3-0.9,1.8-1.2c0.7-0.4,1.3-0.8,2-1.2c0.1-0.1,0-0.3-0.1-0.2c-0.8,0.4-1.6,0.9-2.4,1.4
					c-0.5,0.3-1.2,0.6-1.6,1C15.2,6.3,15.5,6.4,15.5,6.3L15.5,6.3z"/>
			</g>
		</g>
		<g>
			<path class="st13" d="M14.5,9.2c0.4,0.1,0.9-0.2,0.9-0.5c0-0.1,0-0.1,0-0.2c0.1-0.1,0.2-0.1,0.3-0.2C16,8.3,16.1,8,16.1,7.7
				c0-0.1,0-0.2,0-0.2c0.1-0.1,0.2-0.1,0.3-0.1c0.2,0,0.5,0,0.7,0"/>
			<g>
				<path class="st13" d="M14.5,9.3c0.3,0,0.5,0,0.7-0.1c0.3-0.2,0.3-0.5,0.5-0.7c0.2-0.1,0.3-0.2,0.4-0.5c0-0.2,0-0.3,0.1-0.4
					c0.2-0.2,0.6-0.1,0.8-0.1c0.2,0,0.2-0.2,0-0.2c-0.3,0-1.1-0.2-1.2,0.3c-0.1,0.4,0.3,0.2-0.3,0.7c0,0-0.1,0-0.2,0.1
					c-0.2,0.4-0.3,0.8-0.9,0.7C14.4,9.1,14.3,9.3,14.5,9.3L14.5,9.3z"/>
			</g>
		</g>
		<g>
			<path class="st13" d="M17.1,7.5c0-0.5,0.3-0.9,0.6-1.4c0.5-0.7,1-1.5,1.5-2.2"/>
			<g>
				<path class="st13" d="M17.3,7.5c0.1-0.7,0.5-1.2,0.9-1.8c0.4-0.6,0.8-1.2,1.2-1.8c0.1-0.1-0.1-0.2-0.2-0.1
					c-0.4,0.7-0.9,1.3-1.3,2c-0.3,0.5-0.7,1-0.8,1.6C17,7.6,17.2,7.7,17.3,7.5L17.3,7.5z"/>
			</g>
		</g>
		<g>
			<path class="st13" d="M6.4,7.8c0-0.2-0.2-0.4-0.4-0.4"/>
			<g>
				<path class="st13" d="M6.5,7.8C6.5,7.5,6.3,7.4,6.1,7.3C5.9,7.2,5.8,7.4,5.9,7.5c0.2,0.1,0.3,0.2,0.4,0.4C6.4,8,6.6,8,6.5,7.8
					L6.5,7.8z"/>
			</g>
		</g>
		<g>
			<path class="st13" d="M10.4,11.7c0.1,0,0.2,0.2,0,0.3"/>
			<g>
				<path class="st13" d="M10.3,11.8C10.4,11.8,10.4,11.9,10.3,11.8c-0.1,0.2,0.1,0.4,0.2,0.3c0.2-0.2,0.1-0.4-0.1-0.5
					C10.3,11.5,10.2,11.7,10.3,11.8L10.3,11.8z"/>
			</g>
		</g>
		<g>
			<g>
				<path class="st13" d="M5.2,18.4c-0.1,0-0.1,0-0.2,0c-0.2,0-0.2,0.2,0,0.2c0.1,0,0.1,0,0.2,0C5.4,18.7,5.4,18.4,5.2,18.4
					L5.2,18.4z"/>
			</g>
		</g>
		<g>
			<g>
				<path class="st13" d="M5.7,6.3c0.3,0.9,0.5,2.1,1.5,2.5C7.6,8.9,8,8.6,8,8.2C8,8,8,7.7,8,7.5C7.6,7.5,7.2,7.6,6.8,7.6
					c0.1,0.6,0.4,1,0.8,1.5C8,9.7,8.9,9,8.5,8.4c0,0,0,0,0-0.1c0,0.2,0,0.4,0,0.6c0,0,0,0,0-0.1c-0.4,0-0.7-0.1-1.1-0.1
					c0.2,1,1,1.4,1.6,2c0.6,0.6,1,1.2,1.8,1.4c0.5,0.1,0.9-0.4,0.7-0.9c-0.7-1.2-1.6-2.1-2.7-2.9C8.2,7.9,7.6,9,8.3,9.4
					c0.9,0.7,1.7,1.5,2.2,2.5c0.2-0.3,0.5-0.6,0.7-0.9c-0.6-0.2-0.9-0.7-1.3-1.1C9.4,9.4,8.7,9.1,8.6,8.4C8.5,7.9,7.7,7.9,7.5,8.3
					c0,0,0,0,0,0.1C7.3,8.5,7.3,8.8,7.4,9c0,0,0,0,0,0.1c0.3-0.2,0.6-0.5,0.9-0.7C8.1,8,8,7.7,7.9,7.3C7.8,6.7,6.7,6.8,6.8,7.5
					c0,0.2,0,0.5,0,0.7C7,8,7.3,7.8,7.5,7.6C7.3,7.5,7,6.2,6.9,6C6.6,5.2,5.5,5.5,5.7,6.3L5.7,6.3z"/>
			</g>
		</g>
		<g>
			<g>
				<path class="st13" d="M10.5,11.9c1.8,1.7,3.2,3.7,5,5.4c0.6,0.5,1.4-0.3,0.8-0.8c-1.8-1.6-3.2-3.7-5-5.4
					C10.8,10.5,10,11.3,10.5,11.9L10.5,11.9z"/>
			</g>
		</g>
		<g>
			<g>
				<path class="st13" d="M10.7,11.2c-0.3,0.2-0.6,0.5-0.9,0.7c-0.5,0.4,0,1.1,0.6,1c2-0.5,2.9-2.1,4.1-3.6c0.4-0.5-0.5-1.2-0.9-0.7
					C12.7,9.5,11.5,10.1,10.7,11.2c-0.4,0.6,0.7,1.2,1.1,0.6c0.7-1,1.8-1.5,2.6-2.4c-0.3-0.2-0.6-0.5-0.9-0.7
					c-0.9,1.3-1.7,2.7-3.3,3.1c0.2,0.3,0.4,0.7,0.6,1c0.3-0.2,0.6-0.5,0.9-0.7C12.2,11.6,11.3,10.7,10.7,11.2L10.7,11.2z"/>
			</g>
		</g>
		<g>
			<g>
				<path class="st13" d="M14.6,7.5c-0.4,0.3-1,0.8-1,1.4c0.1,0.6,0.8,0.7,1.2,0.5c0.5-0.2,1.1-0.5,1.3-1c0.3-0.6-0.1-1.1-0.7-1.2
					c-0.8-0.1-0.8,1.1,0,1.2c0,0,0.1,0,0.1,0c-0.1-0.1-0.3-0.1-0.4-0.2c0.1-0.5,0-0.6-0.1-0.4C15,7.9,14.9,7.9,14.8,8
					c-0.1,0-0.4,0.2-0.4,0.2c0.1,0.1,0.2,0.2,0.4,0.3c0,0,0,0,0-0.1c0,0.2,0,0.3,0.1,0.5c0-0.2,0.3-0.3,0.4-0.4
					C15.8,8.1,15.2,7,14.6,7.5L14.6,7.5z"/>
			</g>
		</g>
		<g>
			<g>
				<path class="st13" d="M10.3,12.1c-2.1,1.5-3.9,3.2-5.6,5.1c-0.2,0.2-0.3,0.6,0,0.8c0.6,0.5,1.3,0.4,1.9-0.2
					c1-0.9,1.8-2.2,2.6-3.2c0.5-0.6-0.4-1.5-0.8-0.8c-0.2,0.3-2.7,3.5-2.8,3.4c0,0.3,0,0.6,0,0.8c1.6-1.9,3.4-3.5,5.4-5
					C11.5,12.6,10.9,11.6,10.3,12.1L10.3,12.1z"/>
			</g>
		</g>
		<g>
			<g>
				<path class="st13" d="M4.7,18.7c0.1,0,0.1,0,0.2,0c0.8,0.1,1.1-1,0.3-1.2c-0.1,0-0.1,0-0.2,0C4.3,17.4,3.9,18.6,4.7,18.7
					L4.7,18.7z"/>
			</g>
		</g>
	</g>
	<g>
		<g>
			<path class="st13" d="M15.8,6.1c0,0.4,0,0.8,0,1.2c0,0,0.1,0,0.1,0c0-0.3-0.2-0.9,0-1.2c0.2-0.3,0.7-0.5,1-0.7c0,0,0-0.1-0.1-0.1
				c-0.3,0.4-0.6,0.8-1,1.1c0,0.1,0,0.1,0.1,0.1c0.5-0.2,1-0.6,1.5-0.9c0.1,0,0-0.1-0.1-0.1c-0.5,0.4-0.9,0.7-1.5,0.9
				c0,0,0,0.1,0.1,0.1c0.3-0.4,0.6-0.8,1-1.1c0,0,0-0.1-0.1-0.1C16.6,5.6,16,5.8,15.8,6.1c-0.2,0.4,0,0.9,0,1.2c0,0.1,0.1,0.1,0.1,0
				c0-0.4,0-0.8,0-1.2C15.9,6,15.8,6,15.8,6.1L15.8,6.1z"/>
		</g>
	</g>
	<g>
		<g>
			<path class="st13" d="M15.7,7C15.7,7,15.7,7,15.7,7c0.1-0.1,0.1-0.2,0.1-0.4c0,0,0,0,0,0c0.1,0,0.3,0.1,0.4,0.1
				c0.1,0.1,0-0.1,0-0.2c0-0.2,0-0.3,0.1-0.5c0-0.3-0.4-0.4-0.6-0.2c-0.1,0.3-0.2,0.6-0.4,0.9c-0.2,0.4,0.4,0.7,0.5,0.3
				c0.1-0.3,0.2-0.6,0.4-0.9c-0.2-0.1-0.4-0.1-0.6-0.2C15.7,6.3,15.5,6.8,15.7,7c0.1,0.2,0.3,0.3,0.4,0.2c0,0,0,0,0,0
				c0.1-0.1,0.2-0.3,0.1-0.4c0,0,0,0,0,0C16,6.3,15.5,6.6,15.7,7L15.7,7z"/>
		</g>
	</g>
	<g>
		<g>
			<path class="st13" d="M16.2,6.3c0.6-0.2,1.1-0.5,1.7-0.8c0.4-0.2,0.8-0.5,0.9-1c0.1-0.3-0.3-0.5-0.5-0.3
				c-0.4,0.4-0.8,0.5-1.2,0.9c-0.5,0.5-0.9,1.1-1.4,1.6c0.2,0.1,0.3,0.2,0.5,0.4c0.4-0.7,1-1.3,1.7-1.7c-0.1-0.2-0.2-0.3-0.4-0.5
				c-0.5,0.6-1,1.1-1.4,1.7c-0.2,0.3,0.2,0.7,0.4,0.4C17,6.5,17.5,6,18,5.4c0.2-0.2-0.1-0.7-0.4-0.5c-0.8,0.5-1.4,1.1-1.9,2
				c-0.2,0.3,0.2,0.6,0.5,0.4c0.5-0.5,0.9-1.1,1.4-1.6c0.3-0.4,0.8-0.6,1.2-0.9c-0.2-0.1-0.3-0.2-0.5-0.3c-0.1,0.4-0.6,0.6-1,0.8
				c-0.4,0.2-0.8,0.4-1.2,0.5C15.7,5.8,15.8,6.4,16.2,6.3L16.2,6.3z"/>
		</g>
	</g>
	<g>
		<g>
			<path class="st13" d="M3.8,4.8c0.3,0.1,0.6,0.8,0.8,1c0.2,0.3,0.4,0.7,0.7,1c0.2-0.1,0.3-0.2,0.5-0.3c0,0,0-0.1-0.1-0.1
				C5.5,6.5,5.3,6.7,5.2,6.8C5.4,7,5.5,7.1,5.7,7.3c0.1,0.1,0.4,0.1,0.5-0.1C6.3,7,6.3,6.7,6,6.6C5.6,6.5,5.3,7,5.7,7.1
				c0-0.1,0-0.1,0-0.2c0.2,0,0.3,0,0.5-0.1C6,6.7,5.8,6.5,5.6,6.4C5.4,6.1,4.9,6.4,5.1,6.7c0,0,0,0.1,0.1,0.1c0.2,0.3,0.7,0,0.5-0.3
				C5.4,6,5.1,5.5,4.7,5C4.5,4.7,4.4,4.3,4,4.2C3.6,4.1,3.4,4.7,3.8,4.8L3.8,4.8z"/>
		</g>
	</g>
</g>
<g>
	<g>
		<path class="st13" d="M4.7,17.6c0.2,0,0.2-0.2,0-0.2C4.5,17.4,4.5,17.6,4.7,17.6L4.7,17.6z"/>
	</g>
</g>
</svg>
